<svg xmlns="http://www.w3.org/2000/svg" viewBox="0 0 512 512" width="512" height="512">
  <!-- Background Circle -->
  <circle cx="256" cy="256" r="256" fill="#111827"/>
  
  <!-- Sprout Icon (similar to the one used in the navbar) -->
  <g transform="translate(106, 106) scale(1.2)">
    <path d="M128 157.73l-22.4-22.4C99.2 129.3 91.2 128 84 128c-13.47 0-27 5.4-37 14.6-2.87 2.6-5.12 5.5-7.87 8.6-13.12 14.6-26.25 29.1-39.12 43.6c-1.75 2-3.25 3.9-4.75 5.8v.2c-2.25 3-4.5 6-6.5 9.2-10.62 16.9-17.88 36.1-19.88 55.6-1.62 16.2-1.12 33.1 7.75 46.9c8.75 13.3 23.88 21.8 40 21.8c8.62 0 17.12-2.1 25.12-5.1c23.25-8.7 42.38-29.3 58.25-46.8c5.25-5.8 10.5-11.6 16.25-17c3.25-3 6.75-5.9 10.5-8.4c13.38-9.1 31.25-13.5 47.38-9.4c-9.75-10.8-19.5-21.7-29.25-32.5c-9.12-10.1-18.12-20.3-27.12-30.4z" fill="#34d399"/>
    <path d="M224 72s-48 40-64 88c0 0 40-8 96 16c0 0-16-40 0-104z" fill="#34d399"/>
  </g>
  
  <!-- Text "ClearSkies" -->
  <text x="256" y="350" font-family="Inter, sans-serif" font-size="48" font-weight="bold" text-anchor="middle" fill="white">ClearSkies</text>
</svg>